{"title":"Cameraman Gangatho Rambabu (2012) - Telugu - CAM - Untouched","uid":7756382,"size":914565120,"categoryP":"video","categoryS":"movies","magnet":"?xt=urn:btih:23fc9356bb4eb6b963698b2f9d08cfb4fb9f4552&amp;dn=Cameraman+Gangatho+Rambabu+%282012%29+-+Telugu+-+CAM+-+Untouched&amp;tr=udp%3A%2F%2Ftracker.openbittorrent.com%3A80&amp;tr=udp%3A%2F%2Fopen.demonii.com%3A1337&amp;tr=udp%3A%2F%2Ftracker.coppersurfer.tk%3A6969&amp;tr=udp%3A%2F%2Fexodus.desync.com%3A6969","seeders":0,"leechers":0,"uploader":"HDvideos","files":7,"time":1351112030,"description":"mastitorrents.com\n  &lt;a href=&quot;\nhttp://mastitorrents.com/forums/index.php&quot; rel=&quot;nofollow&quot; target=&quot;_NEW&quot;&gt;\nhttp://mastitorrents.com/forums/index.php&lt;/a&gt;\n  &lt;a href=&quot;\nhttp://thepiratebay.se/user/HDvideos/0/7&quot; rel=&quot;nofollow&quot; target=&quot;_NEW&quot;&gt;\nhttp://thepiratebay.se/user/HDvideos/0/7&lt;/a&gt;\n\nCameraman Gangatho Rambabu (2012) - Telugu - CAM - Untouched\n\nGeneral\nComplete name : D:CGTR (2012) CAmVTS_01_1.VOB\nFormat : MPEG-PS\nFile size : 864 MiB\nDuration : 2h 16mn\nOverall bit rate mode : Variable\nOverall bit rate : 883 Kbps\n\nVideo\nID : 224 (0xE0)\nFormat : MPEG Video\nFormat version : Version 2\nFormat profile : Main@Main\nFormat settings, BVOP : Yes\nFormat settings, Matrix : Default\nDuration : 2h 16mn\nBit rate mode : Variable\nBit rate : 609 Kbps\nMaximum bit rate : 9 544 Kbps\nWidth : 720 pixels\nHeight : 480 pixels\nDisplay aspect ratio : 16:9\nFrame rate : 29.970 fps\nStandard : NTSC\nColor space : YUV\nChroma subsampling : 4:2:0\nBit depth : 8 bits\nScan type : Progressive\nCompression mode : Lossy\nBits/(Pixel*Frame) : 0.059\nStream size : 596 MiB (69%)\n\nAudio\nID : 189 (0xBD)-128 (0x80)\nFormat : AC-3\nFormat/Info : Audio Coding 3\nMode extension : CM (complete main)\nFormat settings, Endianness : Big\nMuxing mode : DVD-Video\nDuration : 2h 16mn\nBit rate mode : Constant\nBit rate : 256 Kbps\nChannel(s) : 2 channels\nChannel positions : Front: L R\nSampling rate : 48.0 KHz\nBit depth : 16 bits\nCompression mode : Lossy\nDelay relative to video : 40ms\nStream size : 251 MiB (29%)","torrent":{"xt":"urn:btih:23fc9356bb4eb6b963698b2f9d08cfb4fb9f4552","amp;dn":"Cameraman+Gangatho+Rambabu+%282012%29+-+Telugu+-+CAM+-+Untouched","amp;tr":["udp%3A%2F%2Ftracker.openbittorrent.com%3A80","udp%3A%2F%2Fopen.demonii.com%3A1337","udp%3A%2F%2Ftracker.coppersurfer.tk%3A6969","udp%3A%2F%2Fexodus.desync.com%3A6969"],"infoHash":"23fc9356bb4eb6b963698b2f9d08cfb4fb9f4552","infoHashBuffer":{"type":"Buffer","data":[35,252,147,86,187,78,182,185,99,105,139,47,157,8,207,180,251,159,69,82]},"announce":[],"urlList":[]}}